<?xml version="1.0" encoding="utf-8"?>
<!-- Generator: Adobe Illustrator 16.0.0, SVG Export Plug-In . SVG Version: 6.00 Build 0)  -->
<!DOCTYPE svg PUBLIC "-//W3C//DTD SVG 1.1//EN" "http://www.w3.org/Graphics/SVG/1.1/DTD/svg11.dtd">
<svg version="1.1" id="Layer_1" xmlns="http://www.w3.org/2000/svg" xmlns:xlink="http://www.w3.org/1999/xlink" x="0px" y="0px"
	 width="25px" height="25px" viewBox="0 0 25 25" enable-background="new 0 0 25 25" xml:space="preserve">
<g>
	<rect fill="#228200" width="25" height="25"/>
	<g>
		
			<linearGradient id="triangle36_1_" gradientUnits="userSpaceOnUse" x1="-188.6807" y1="218.2119" x2="-188.6728" y2="218.2041" gradientTransform="matrix(-244 0 0 -446 -46015 97339)">
			<stop  offset="0" style="stop-color:#278700"/>
			<stop  offset="1" style="stop-color:#2B8C00"/>
		</linearGradient>
		<polygon id="triangle36_126_" fill="url(#triangle36_1_)" points="23.316,19.971 21.409,16.962 22.41,20.467 		"/>
		
			<linearGradient id="triangle36_2_" gradientUnits="userSpaceOnUse" x1="-187.708" y1="218.4443" x2="-187.7002" y2="218.4365" gradientTransform="matrix(-539 0 0 -508 -101150 110991)">
			<stop  offset="0" style="stop-color:#1E7D00"/>
			<stop  offset="1" style="stop-color:#177400"/>
		</linearGradient>
		<polygon id="triangle36_125_" fill="url(#triangle36_2_)" points="22.41,20.467 19.338,22.996 23.551,24.458 		"/>
		
			<linearGradient id="triangle36_3_" gradientUnits="userSpaceOnUse" x1="-188.187" y1="218.4473" x2="-188.1792" y2="218.4394" gradientTransform="matrix(-241 0 0 -508 -45329 110991)">
			<stop  offset="0" style="stop-color:#0E6A00"/>
			<stop  offset="1" style="stop-color:#177400"/>
		</linearGradient>
		<polygon id="triangle36_124_" fill="url(#triangle36_3_)" points="23.551,24.458 22.41,20.467 24.294,22.359 		"/>
		
			<linearGradient id="triangle36_4_" gradientUnits="userSpaceOnUse" x1="-188.189" y1="221.8945" x2="-188.1811" y2="221.8867" gradientTransform="matrix(-241 0 0 -304 -45329 67476.25)">
			<stop  offset="0" style="stop-color:#1E7D00"/>
			<stop  offset="1" style="stop-color:#1B7900"/>
		</linearGradient>
		<polygon id="triangle36_123_" fill="url(#triangle36_4_)" points="23.316,19.971 22.41,20.467 24.294,22.359 		"/>
		
			<linearGradient id="SVGID_1_" gradientUnits="userSpaceOnUse" x1="-190.8086" y1="213.498" x2="-190.8008" y2="213.4902" gradientTransform="matrix(-528 0 0 -276 -100736 58925.25)">
			<stop  offset="0" style="stop-color:#D3FF00"/>
			<stop  offset="1" style="stop-color:#D5FF00"/>
		</linearGradient>
		<polygon fill="url(#SVGID_1_)" points="7.262,0 10.708,1.812 6.667,1.725 6.596,0 		"/>
		
			<linearGradient id="triangle36_5_" gradientUnits="userSpaceOnUse" x1="-188.8843" y1="216.0684" x2="-188.8764" y2="216.0605" gradientTransform="matrix(-887 0 0 -821 -167528 177410)">
			<stop  offset="0" style="stop-color:#187600"/>
			<stop  offset="1" style="stop-color:#217D00"/>
		</linearGradient>
		<polygon id="triangle36_122_" fill="url(#triangle36_5_)" points="13.28,24.089 10.998,24.953 6.346,18.502 		"/>
		
			<linearGradient id="triangle36_6_" gradientUnits="userSpaceOnUse" x1="-189.4702" y1="216.0684" x2="-189.4624" y2="216.0605" gradientTransform="matrix(-798 0 0 -821 -151187 177410)">
			<stop  offset="0" style="stop-color:#136F00"/>
			<stop  offset="1" style="stop-color:#228200"/>
		</linearGradient>
		<polygon id="triangle36_121_" fill="url(#triangle36_6_)" points="10.998,24.953 4.76,21.834 6.346,18.502 		"/>
		
			<linearGradient id="triangle36_7_" gradientUnits="userSpaceOnUse" x1="-191.4058" y1="216.5742" x2="-191.3979" y2="216.5664" gradientTransform="matrix(-582 0 0 -644 -111392 139491)">
			<stop  offset="0" style="stop-color:#278700"/>
			<stop  offset="1" style="stop-color:#389900"/>
		</linearGradient>
		<polygon id="triangle36_120_" fill="url(#triangle36_7_)" points="4.76,21.834 1.797,16.773 6.346,18.502 		"/>
		
			<linearGradient id="SVGID_2_" gradientUnits="userSpaceOnUse" x1="-189.438" y1="219.0078" x2="-189.4302" y2="219" gradientTransform="matrix(-792 0 0 -555 -150025 121573)">
			<stop  offset="0" style="stop-color:#0A6500"/>
			<stop  offset="1" style="stop-color:#015A00"/>
		</linearGradient>
		<polygon fill="url(#SVGID_2_)" points="5.13,25 5.119,24.992 10.998,24.953 11.001,25 		"/>
		
			<linearGradient id="triangle36_8_" gradientUnits="userSpaceOnUse" x1="-189.6221" y1="259.0225" x2="-189.6142" y2="259.0146" gradientTransform="matrix(-752 0 0 -71 -142585 18415)">
			<stop  offset="0" style="stop-color:#0A6500"/>
			<stop  offset="1" style="stop-color:#055F00"/>
		</linearGradient>
		<polygon id="triangle36_119_" fill="url(#triangle36_8_)" points="10.998,24.953 5.119,24.992 5.455,24.436 		"/>
		
			<linearGradient id="triangle36_9_" gradientUnits="userSpaceOnUse" x1="-189.4707" y1="220.4043" x2="-189.4629" y2="220.3965" gradientTransform="matrix(-798 0 0 -397 -151187 87522.25)">
			<stop  offset="0" style="stop-color:#0A6500"/>
			<stop  offset="1" style="stop-color:#0E6A00"/>
		</linearGradient>
		<polygon id="triangle36_118_" fill="url(#triangle36_9_)" points="10.998,24.953 4.76,21.834 5.455,24.436 		"/>
		
			<linearGradient id="triangle36_10_" gradientUnits="userSpaceOnUse" x1="-196.0376" y1="219.4219" x2="-196.0297" y2="219.414" gradientTransform="matrix(-235 0 0 -266 -46059 58378.25)">
			<stop  offset="0" style="stop-color:#55C300"/>
			<stop  offset="1" style="stop-color:#5BC900"/>
		</linearGradient>
		<polygon id="triangle36_117_" fill="url(#triangle36_10_)" points="9.816,14.172 8.004,12.082 7.98,13.457 		"/>
		
			<linearGradient id="triangle36_11_" gradientUnits="userSpaceOnUse" x1="-191.7832" y1="215.9346" x2="-191.7754" y2="215.9267" gradientTransform="matrix(-444 0 0 -642 -85141.75 138643)">
			<stop  offset="0" style="stop-color:#4DB800"/>
			<stop  offset="1" style="stop-color:#4BB000"/>
		</linearGradient>
		<polygon id="triangle36_116_" fill="url(#triangle36_11_)" points="9.816,14.172 6.346,18.502 7.98,13.457 		"/>
		
			<linearGradient id="triangle36_12_" gradientUnits="userSpaceOnUse" x1="-187.8193" y1="221.5928" x2="-187.8115" y2="221.5849" gradientTransform="matrix(-641 0 0 -322 -120370 71373.25)">
			<stop  offset="0" style="stop-color:#1E8000"/>
			<stop  offset="1" style="stop-color:#1A7D00"/>
		</linearGradient>
		<polygon id="triangle36_115_" fill="url(#triangle36_12_)" points="22.41,20.467 19.338,22.996 17.399,21.811 		"/>
		
			<linearGradient id="triangle36_13_" gradientUnits="userSpaceOnUse" x1="-187.8203" y1="216.7656" x2="-187.8125" y2="216.7578" gradientTransform="matrix(-641 0 0 -617 -120370 133762)">
			<stop  offset="0" style="stop-color:#278700"/>
			<stop  offset="1" style="stop-color:#2B8C00"/>
		</linearGradient>
		<polygon id="triangle36_114_" fill="url(#triangle36_13_)" points="22.41,20.467 21.409,16.962 17.399,21.811 		"/>
		
			<linearGradient id="SVGID_3_" gradientUnits="userSpaceOnUse" x1="-190.0493" y1="216.7773" x2="-190.0415" y2="216.7695" gradientTransform="matrix(-300 0 0 -778 -56995.75 168674)">
			<stop  offset="0" style="stop-color:#167600"/>
			<stop  offset="1" style="stop-color:#127100"/>
		</linearGradient>
		<polygon fill="url(#SVGID_3_)" points="17.188,25 17.399,21.811 19.338,22.996 18.385,25 		"/>
		
			<linearGradient id="SVGID_4_" gradientUnits="userSpaceOnUse" x1="-189.2041" y1="216.7764" x2="-189.1963" y2="216.7685" gradientTransform="matrix(-527 0 0 -778 -99693 168674)">
			<stop  offset="0" style="stop-color:#1E7D00"/>
			<stop  offset="1" style="stop-color:#0E6A00"/>
		</linearGradient>
		<polygon fill="url(#SVGID_4_)" points="14.162,25 13.28,24.089 17.399,21.811 17.188,25 		"/>
		
			<linearGradient id="SVGID_5_" gradientUnits="userSpaceOnUse" x1="-189.5498" y1="218.1943" x2="-189.5421" y2="218.1867" gradientTransform="matrix(-475 0 0 -621 -90021 135521)">
			<stop  offset="0" style="stop-color:#055700"/>
			<stop  offset="1" style="stop-color:#0B6200"/>
		</linearGradient>
		<polygon fill="url(#SVGID_5_)" points="13.641,25 13.28,24.089 14.162,25 		"/>
		
			<linearGradient id="triangle36_14_" gradientUnits="userSpaceOnUse" x1="-188.5635" y1="217.1143" x2="-188.5556" y2="217.1064" gradientTransform="matrix(-600 0 0 -252 -113118 54720)">
			<stop  offset="0" style="stop-color:#5EC700"/>
			<stop  offset="1" style="stop-color:#64CE00"/>
		</linearGradient>
		<polygon id="triangle36_113_" fill="url(#triangle36_14_)" points="19.166,8.75 18.572,6.77 14.476,8.562 		"/>
		
			<linearGradient id="triangle36_15_" gradientUnits="userSpaceOnUse" x1="-188.561" y1="216.5703" x2="-188.5532" y2="216.5625" gradientTransform="matrix(-600 0 0 -354 -113118 76674.25)">
			<stop  offset="0" style="stop-color:#58C500"/>
			<stop  offset="1" style="stop-color:#62CC00"/>
		</linearGradient>
		<polygon id="triangle36_112_" fill="url(#triangle36_15_)" points="19.166,8.75 16.211,11.344 14.476,8.562 		"/>
		
			<linearGradient id="triangle36_16_" gradientUnits="userSpaceOnUse" x1="-188.8135" y1="216.0205" x2="-188.8056" y2="216.0127" gradientTransform="matrix(-558 0 0 -315 -105340 68052.25)">
			<stop  offset="0" style="stop-color:#65D000"/>
			<stop  offset="1" style="stop-color:#71E300"/>
		</linearGradient>
		<polygon id="triangle36_111_" fill="url(#triangle36_16_)" points="18.572,6.77 14.21,6.086 14.476,8.562 		"/>
		
			<linearGradient id="SVGID_6_" gradientUnits="userSpaceOnUse" x1="-186.8149" y1="212.6934" x2="-186.8071" y2="212.6855" gradientTransform="matrix(-1188 0 0 -812 -221906 172705)">
			<stop  offset="0" style="stop-color:#0A6700"/>
			<stop  offset="1" style="stop-color:#278700"/>
		</linearGradient>
		<polygon fill="url(#SVGID_6_)" points="25,0 25,2.308 20.57,0 		"/>
		
			<linearGradient id="triangle36_17_" gradientUnits="userSpaceOnUse" x1="-189.2041" y1="214.7656" x2="-189.1963" y2="214.7578" gradientTransform="matrix(-527 0 0 -1169 -99693 251076)">
			<stop  offset="0" style="stop-color:#2B8C00"/>
			<stop  offset="1" style="stop-color:#2C9000"/>
		</linearGradient>
		<polygon id="triangle36_110_" fill="url(#triangle36_17_)" points="17.399,21.811 13.28,24.089 14.288,14.903 		"/>
		
			<linearGradient id="triangle36_18_" gradientUnits="userSpaceOnUse" x1="-190.1606" y1="216.5645" x2="-190.1528" y2="216.5566" gradientTransform="matrix(-415 0 0 -453 -78900.75 98115)">
			<stop  offset="0" style="stop-color:#59C100"/>
			<stop  offset="1" style="stop-color:#55BD00"/>
		</linearGradient>
		<polygon id="triangle36_109_" fill="url(#triangle36_18_)" points="16.211,11.344 12.967,12.545 14.288,14.903 		"/>
		
			<linearGradient id="triangle36_19_" gradientUnits="userSpaceOnUse" x1="-188.5293" y1="214.7656" x2="-188.5215" y2="214.7578" gradientTransform="matrix(-1016 0 0 -1169 -191532 251076)">
			<stop  offset="0" style="stop-color:#258500"/>
			<stop  offset="1" style="stop-color:#37A000"/>
		</linearGradient>
		<polygon id="triangle36_108_" fill="url(#triangle36_19_)" points="13.28,24.089 6.346,18.502 14.288,14.903 		"/>
		
			<linearGradient id="triangle36_20_" gradientUnits="userSpaceOnUse" x1="-188.5298" y1="216.5791" x2="-188.522" y2="216.5713" gradientTransform="matrix(-1016 0 0 -551 -191532 119349)">
			<stop  offset="0" style="stop-color:#4DB800"/>
			<stop  offset="1" style="stop-color:#3FA900"/>
		</linearGradient>
		<polygon id="triangle36_107_" fill="url(#triangle36_20_)" points="9.816,14.172 6.346,18.502 14.288,14.903 		"/>
		
			<linearGradient id="triangle36_21_" gradientUnits="userSpaceOnUse" x1="-193.7603" y1="224.3262" x2="-193.7525" y2="224.3184" gradientTransform="matrix(-396 0 0 -271 -76723.75 60815.25)">
			<stop  offset="0" style="stop-color:#085F00"/>
			<stop  offset="1" style="stop-color:#0A6500"/>
		</linearGradient>
		<polygon id="triangle36_106_" fill="url(#triangle36_21_)" points="5.455,24.436 5.119,24.992 2.359,22.863 		"/>
		
			<linearGradient id="triangle36_22_" gradientUnits="userSpaceOnUse" x1="-193.7612" y1="221.8799" x2="-193.7534" y2="221.8721" gradientTransform="matrix(-396 0 0 -331 -76723.75 73464.25)">
			<stop  offset="0" style="stop-color:#0C6500"/>
			<stop  offset="1" style="stop-color:#156F00"/>
		</linearGradient>
		<polygon id="triangle36_105_" fill="url(#triangle36_22_)" points="5.455,24.436 4.76,21.834 2.359,22.863 		"/>
		
			<linearGradient id="triangle36_23_" gradientUnits="userSpaceOnUse" x1="-194.2974" y1="215.9697" x2="-194.2896" y2="215.9619" gradientTransform="matrix(-379 0 0 -775 -73633.75 167394)">
			<stop  offset="0" style="stop-color:#1B7B00"/>
			<stop  offset="1" style="stop-color:#208500"/>
		</linearGradient>
		<polygon id="triangle36_104_" fill="url(#triangle36_23_)" points="4.76,21.834 1.797,16.773 2.359,22.863 		"/>
		
			<linearGradient id="SVGID_7_" gradientUnits="userSpaceOnUse" x1="-192.7085" y1="215.9697" x2="-192.7006" y2="215.9619" gradientTransform="matrix(-538 0 0 -775 -103674 167394)">
			<stop  offset="0" style="stop-color:#309000"/>
			<stop  offset="1" style="stop-color:#177B00"/>
		</linearGradient>
		<polygon fill="url(#SVGID_7_)" points="0,17.897 1.797,16.773 2.359,22.863 0,20.725 		"/>
		
			<linearGradient id="SVGID_8_" gradientUnits="userSpaceOnUse" x1="-192.3691" y1="218.334" x2="-192.3613" y2="218.3262" gradientTransform="matrix(-572 0 0 -485 -110032 105912)">
			<stop  offset="0" style="stop-color:#217D00"/>
			<stop  offset="1" style="stop-color:#137600"/>
		</linearGradient>
		<polygon fill="url(#SVGID_8_)" points="0,20.725 2.359,22.863 0,21.337 		"/>
		
			<linearGradient id="SVGID_9_" gradientUnits="userSpaceOnUse" x1="-190.0508" y1="217.9219" x2="-190.043" y2="217.9141" gradientTransform="matrix(-300 0 0 -627 -56995.75 136660)">
			<stop  offset="0" style="stop-color:#136F00"/>
			<stop  offset="1" style="stop-color:#035D00"/>
		</linearGradient>
		<polygon fill="url(#SVGID_9_)" points="18.385,25 19.338,22.996 19.267,25 		"/>
		
			<linearGradient id="SVGID_10_" gradientUnits="userSpaceOnUse" x1="-186.8887" y1="219.8574" x2="-186.8807" y2="219.8494" gradientTransform="matrix(-1058 0 0 -477 -197702 104896)">
			<stop  offset="0" style="stop-color:#004A0C"/>
			<stop  offset="1" style="stop-color:#035D00"/>
		</linearGradient>
		<polygon fill="url(#SVGID_10_)" points="22.602,25 23.551,24.458 24.117,25 		"/>
		
			<linearGradient id="SVGID_11_" gradientUnits="userSpaceOnUse" x1="-187.6816" y1="219.1484" x2="-187.6738" y2="219.1406" gradientTransform="matrix(-557 0 0 -502 -104516 110035)">
			<stop  offset="0" style="stop-color:#0A6500"/>
			<stop  offset="1" style="stop-color:#0E6A00"/>
		</linearGradient>
		<polygon fill="url(#SVGID_11_)" points="19.267,25 19.338,22.996 23.551,24.458 22.602,25 		"/>
		
			<linearGradient id="SVGID_12_" gradientUnits="userSpaceOnUse" x1="-186.7646" y1="219.8428" x2="-186.7568" y2="219.8349" gradientTransform="matrix(-501 0 0 -478 -93543 105108)">
			<stop  offset="0" style="stop-color:#004A0C"/>
			<stop  offset="1" style="stop-color:#055700"/>
		</linearGradient>
		<polygon fill="url(#SVGID_12_)" points="24.117,25 23.551,24.458 25,24.451 25,25 		"/>
		
			<linearGradient id="SVGID_13_" gradientUnits="userSpaceOnUse" x1="-187.7627" y1="224.2568" x2="-187.7548" y2="224.249" gradientTransform="matrix(-217 0 0 -267 -40719 59899.25)">
			<stop  offset="0" style="stop-color:#0C6500"/>
			<stop  offset="1" style="stop-color:#055F00"/>
		</linearGradient>
		<polygon fill="url(#SVGID_13_)" points="25,24.451 23.551,24.458 24.294,22.359 25,23.908 		"/>
		
			<linearGradient id="SVGID_14_" gradientUnits="userSpaceOnUse" x1="-188.354" y1="223.6445" x2="-188.3462" y2="223.6367" gradientTransform="matrix(-122 0 0 -281 -22954 62866.25)">
			<stop  offset="0" style="stop-color:#015A00"/>
			<stop  offset="1" style="stop-color:#0A6500"/>
		</linearGradient>
		<polygon fill="url(#SVGID_14_)" points="25,23.908 24.294,22.359 24.747,22.242 25,23.358 		"/>
		
			<linearGradient id="triangle36_24_" gradientUnits="userSpaceOnUse" x1="-188.2495" y1="221.8955" x2="-188.2416" y2="221.8876" gradientTransform="matrix(-183 0 0 -304 -34425 67476.25)">
			<stop  offset="0" style="stop-color:#0E6A00"/>
			<stop  offset="1" style="stop-color:#136F00"/>
		</linearGradient>
		<polygon id="triangle36_103_" fill="url(#triangle36_24_)" points="24.294,22.359 23.316,19.971 24.747,22.242 		"/>
		
			<linearGradient id="SVGID_15_" gradientUnits="userSpaceOnUse" x1="-188.7666" y1="213.0947" x2="-188.7588" y2="213.0869" gradientTransform="matrix(-542 0 0 -965 -102292 205636)">
			<stop  offset="0" style="stop-color:#54BA00"/>
			<stop  offset="1" style="stop-color:#63D400"/>
		</linearGradient>
		<polygon fill="url(#SVGID_15_)" points="18.963,0 18.572,6.77 14.773,0.711 16.75,0 		"/>
		
			<linearGradient id="triangle36_25_" gradientUnits="userSpaceOnUse" x1="-188.8154" y1="213.3555" x2="-188.8076" y2="213.3476" gradientTransform="matrix(-558 0 0 -771 -105340 164498)">
			<stop  offset="0" style="stop-color:#61D200"/>
			<stop  offset="1" style="stop-color:#77E700"/>
		</linearGradient>
		<polygon id="triangle36_102_" fill="url(#triangle36_25_)" points="18.572,6.77 14.21,6.086 14.773,0.711 		"/>
		
			<linearGradient id="SVGID_16_" gradientUnits="userSpaceOnUse" x1="-190.9756" y1="213.3691" x2="-190.9678" y2="213.3613" gradientTransform="matrix(-635 0 0 -294 -121262 62730.25)">
			<stop  offset="0" style="stop-color:#D5FF00"/>
			<stop  offset="1" style="stop-color:#D5FF00"/>
		</linearGradient>
		<polygon fill="url(#SVGID_16_)" points="6.596,0 6.667,1.725 2.961,0 		"/>
		
			<linearGradient id="SVGID_17_" gradientUnits="userSpaceOnUse" x1="-190.9741" y1="213.2012" x2="-190.9663" y2="213.1934" gradientTransform="matrix(-635 0 0 -539 -121262 114915)">
			<stop  offset="0" style="stop-color:#CEFF00"/>
			<stop  offset="1" style="stop-color:#CEFF00"/>
		</linearGradient>
		<polygon fill="url(#SVGID_17_)" points="2.961,0 6.667,1.725 4.041,3.65 2.026,0 		"/>
		
			<linearGradient id="SVGID_18_" gradientUnits="userSpaceOnUse" x1="-191.6855" y1="213.2002" x2="-191.6777" y2="213.1924" gradientTransform="matrix(-610 0 0 -539 -116923 114915)">
			<stop  offset="0" style="stop-color:#BCFF00"/>
			<stop  offset="1" style="stop-color:#C4FF00"/>
		</linearGradient>
		<polygon fill="url(#SVGID_18_)" points="2.026,0 4.041,3.65 0,2.338 0,1.297 1.174,0 		"/>
		
			<linearGradient id="SVGID_19_" gradientUnits="userSpaceOnUse" x1="-193.5156" y1="213.3184" x2="-193.5078" y2="213.3105" gradientTransform="matrix(-484 0 0 -342 -93660 72954.25)">
			<stop  offset="0" style="stop-color:#A8FF00"/>
			<stop  offset="1" style="stop-color:#BAFF00"/>
		</linearGradient>
		<polygon fill="url(#SVGID_19_)" points="1.174,0 0,1.297 0,0 		"/>
		
			<linearGradient id="SVGID_20_" gradientUnits="userSpaceOnUse" x1="-190.5376" y1="214.1563" x2="-190.5298" y2="214.1484" gradientTransform="matrix(-807 0 0 -388 -153760 83094.25)">
			<stop  offset="0" style="stop-color:#A6FF00"/>
			<stop  offset="1" style="stop-color:#8DFF00"/>
		</linearGradient>
		<polygon fill="url(#SVGID_20_)" points="0,2.338 4.041,3.65 0,4.611 		"/>
		
			<linearGradient id="triangle36_26_" gradientUnits="userSpaceOnUse" x1="-193.6138" y1="213.3174" x2="-193.6059" y2="213.3095" gradientTransform="matrix(-226 0 0 -728 -43742 155295)">
			<stop  offset="0" style="stop-color:#77EF00"/>
			<stop  offset="1" style="stop-color:#81FB00"/>
		</linearGradient>
		<polygon id="triangle36_101_" fill="url(#triangle36_26_)" points="14.773,0.711 14.21,6.086 13.006,0.365 		"/>
		
			<linearGradient id="triangle36_27_" gradientUnits="userSpaceOnUse" x1="-190.4956" y1="213.3164" x2="-190.4878" y2="213.3086" gradientTransform="matrix(-448 0 0 -728 -85327.75 155295)">
			<stop  offset="0" style="stop-color:#87FD00"/>
			<stop  offset="1" style="stop-color:#9EFF00"/>
		</linearGradient>
		<polygon id="triangle36_100_" fill="url(#triangle36_27_)" points="14.21,6.086 10.708,1.812 13.006,0.365 		"/>
		
			<linearGradient id="SVGID_21_" gradientUnits="userSpaceOnUse" x1="-189.0884" y1="213.499" x2="-189.0805" y2="213.4912" gradientTransform="matrix(-822 0 0 -276 -155418 58925.25)">
			<stop  offset="0" style="stop-color:#BCFF00"/>
			<stop  offset="1" style="stop-color:#CBFF00"/>
		</linearGradient>
		<polygon fill="url(#SVGID_21_)" points="9.759,0 13.006,0.365 10.708,1.812 7.262,0 		"/>
		
			<linearGradient id="SVGID_22_" gradientUnits="userSpaceOnUse" x1="-186.4512" y1="214.748" x2="-186.4431" y2="214.74" gradientTransform="matrix(-516 0 0 -1193 -96180 256210)">
			<stop  offset="0" style="stop-color:#005702"/>
			<stop  offset="1" style="stop-color:#015A00"/>
		</linearGradient>
		<polygon fill="url(#SVGID_22_)" points="25,21.793 25,23.358 24.747,22.242 		"/>
		
			<linearGradient id="SVGID_23_" gradientUnits="userSpaceOnUse" x1="-186.5913" y1="215.291" x2="-186.5834" y2="215.2831" gradientTransform="matrix(-699 0 0 -912 -130399 196359)">
			<stop  offset="0" style="stop-color:#0E6A00"/>
			<stop  offset="1" style="stop-color:#0A6700"/>
		</linearGradient>
		<polygon fill="url(#SVGID_23_)" points="25,18.463 25,21.793 24.747,22.242 23.316,19.971 		"/>
		
			<linearGradient id="SVGID_24_" gradientUnits="userSpaceOnUse" x1="-186.6963" y1="216.3486" x2="-186.6885" y2="216.3408" gradientTransform="matrix(-943 0 0 -623 -176027 134800)">
			<stop  offset="0" style="stop-color:#1E8000"/>
			<stop  offset="1" style="stop-color:#167600"/>
		</linearGradient>
		<polygon fill="url(#SVGID_24_)" points="25,16.043 25,18.463 23.316,19.971 21.409,16.962 		"/>
		
			<linearGradient id="triangle36_28_" gradientUnits="userSpaceOnUse" x1="-188.5898" y1="215.1035" x2="-188.582" y2="215.0957" gradientTransform="matrix(-603 0 0 -952 -113700 204794)">
			<stop  offset="0" style="stop-color:#339900"/>
			<stop  offset="1" style="stop-color:#42AB00"/>
		</linearGradient>
		<polygon id="triangle36_99_" fill="url(#triangle36_28_)" points="17.399,21.811 14.288,14.903 19.002,14.329 		"/>
		
			<linearGradient id="triangle36_29_" gradientUnits="userSpaceOnUse" x1="-188.5889" y1="216.5635" x2="-188.581" y2="216.5556" gradientTransform="matrix(-603 0 0 -453 -113700 98115)">
			<stop  offset="0" style="stop-color:#55BD00"/>
			<stop  offset="1" style="stop-color:#46B000"/>
		</linearGradient>
		<polygon id="triangle36_98_" fill="url(#triangle36_29_)" points="16.211,11.344 14.288,14.903 19.002,14.329 		"/>
		
			<linearGradient id="triangle36_30_" gradientUnits="userSpaceOnUse" x1="-192.252" y1="224.3262" x2="-192.2441" y2="224.3183" gradientTransform="matrix(-518 0 0 -271 -99581 60815.25)">
			<stop  offset="0" style="stop-color:#005F00"/>
			<stop  offset="1" style="stop-color:#0A6700"/>
		</linearGradient>
		<polygon id="triangle36_97_" fill="url(#triangle36_30_)" points="5.119,24.992 2.359,22.863 1.07,23.382 		"/>
		
			<linearGradient id="SVGID_25_" gradientUnits="userSpaceOnUse" x1="-192.3687" y1="219.2314" x2="-192.3608" y2="219.2236" gradientTransform="matrix(-572 0 0 -434 -110032 95167)">
			<stop  offset="0" style="stop-color:#136F00"/>
			<stop  offset="1" style="stop-color:#156F00"/>
		</linearGradient>
		<polygon fill="url(#SVGID_25_)" points="0,21.337 2.359,22.863 1.07,23.382 0,22.234 		"/>
		
			<linearGradient id="SVGID_26_" gradientUnits="userSpaceOnUse" x1="-193.6851" y1="219.2295" x2="-193.6772" y2="219.2216" gradientTransform="matrix(-484 0 0 -434 -93741 95167)">
			<stop  offset="0" style="stop-color:#137600"/>
			<stop  offset="1" style="stop-color:#0E6C00"/>
		</linearGradient>
		<polygon fill="url(#SVGID_26_)" points="0,22.234 1.07,23.382 0,22.962 		"/>
		
			<linearGradient id="SVGID_27_" gradientUnits="userSpaceOnUse" x1="-193.6846" y1="228.5908" x2="-193.6767" y2="228.583" gradientTransform="matrix(-484 0 0 -189 -93741 43226)">
			<stop  offset="0" style="stop-color:#0E6A00"/>
			<stop  offset="1" style="stop-color:#0E6A00"/>
		</linearGradient>
		<polygon fill="url(#SVGID_27_)" points="0,22.962 1.07,23.382 0,23.15 		"/>
		
			<linearGradient id="SVGID_28_" gradientUnits="userSpaceOnUse" x1="-188.7368" y1="212.6191" x2="-188.7291" y2="212.6114" gradientTransform="matrix(-990 0 0 -373 -186834 79305.25)">
			<stop  offset="0" style="stop-color:#C7FF00"/>
			<stop  offset="1" style="stop-color:#D5FF00"/>
		</linearGradient>
		<polygon fill="url(#SVGID_28_)" points="12.041,0 13.006,0.365 9.759,0 		"/>
		
			<linearGradient id="triangle36_31_" gradientUnits="userSpaceOnUse" x1="-190.8066" y1="215.9346" x2="-190.7988" y2="215.9267" gradientTransform="matrix(-619 0 0 -642 -118102 138643)">
			<stop  offset="0" style="stop-color:#51BD00"/>
			<stop  offset="1" style="stop-color:#47AB00"/>
		</linearGradient>
		<polygon id="triangle36_96_" fill="url(#triangle36_31_)" points="7.98,13.457 6.346,18.502 3.142,14.337 		"/>
		
			<linearGradient id="triangle36_32_" gradientUnits="userSpaceOnUse" x1="-191.4072" y1="216.7588" x2="-191.3994" y2="216.7509" gradientTransform="matrix(-582 0 0 -530 -111392 114897)">
			<stop  offset="0" style="stop-color:#3C9E00"/>
			<stop  offset="1" style="stop-color:#45A700"/>
		</linearGradient>
		<polygon id="triangle36_95_" fill="url(#triangle36_32_)" points="6.346,18.502 1.797,16.773 3.142,14.337 		"/>
		
			<linearGradient id="triangle36_33_" gradientUnits="userSpaceOnUse" x1="-204.0737" y1="216.2148" x2="-204.0659" y2="216.207" gradientTransform="matrix(-174 0 0 -547 -35506 118281)">
			<stop  offset="0" style="stop-color:#42AB00"/>
			<stop  offset="1" style="stop-color:#4DB800"/>
		</linearGradient>
		<polygon id="triangle36_94_" fill="url(#triangle36_33_)" points="1.797,16.773 1.781,12.475 3.142,14.337 		"/>
		
			<linearGradient id="triangle36_34_" gradientUnits="userSpaceOnUse" x1="-188.6709" y1="215.1045" x2="-188.6631" y2="215.0966" gradientTransform="matrix(-436 0 0 -952 -82239.75 204794)">
			<stop  offset="0" style="stop-color:#3BA200"/>
			<stop  offset="1" style="stop-color:#2F9500"/>
		</linearGradient>
		<polygon id="triangle36_93_" fill="url(#triangle36_34_)" points="19.002,14.329 17.399,21.811 20.808,15.869 		"/>
		
			<linearGradient id="SVGID_29_" gradientUnits="userSpaceOnUse" x1="-186.7197" y1="221.6924" x2="-186.7119" y2="221.6845" gradientTransform="matrix(-1020 0 0 -240 -190426 53221)">
			<stop  offset="0" style="stop-color:#0E6C00"/>
			<stop  offset="1" style="stop-color:#309200"/>
		</linearGradient>
		<polygon fill="url(#SVGID_29_)" points="25,15.451 25,16.043 21.409,16.962 20.808,15.869 		"/>
		
			<linearGradient id="triangle36_35_" gradientUnits="userSpaceOnUse" x1="-188.2715" y1="215.8945" x2="-188.2636" y2="215.8867" gradientTransform="matrix(-513 0 0 -756 -96562 163232)">
			<stop  offset="0" style="stop-color:#339900"/>
			<stop  offset="1" style="stop-color:#2F9500"/>
		</linearGradient>
		<polygon id="triangle36_92_" fill="url(#triangle36_35_)" points="21.409,16.962 17.399,21.811 20.808,15.869 		"/>
		
			<linearGradient id="triangle36_36_" gradientUnits="userSpaceOnUse" x1="-190.1563" y1="215.0977" x2="-190.1484" y2="215.0898" gradientTransform="matrix(-231 0 0 -708 -43905 152300)">
			<stop  offset="0" style="stop-color:#3E9E00"/>
			<stop  offset="1" style="stop-color:#47AB00"/>
		</linearGradient>
		<polygon id="triangle36_91_" fill="url(#triangle36_36_)" points="20.808,15.869 19.002,14.329 19.557,10.306 		"/>
		
			<linearGradient id="triangle36_37_" gradientUnits="userSpaceOnUse" x1="-189.0732" y1="216.9014" x2="-189.0654" y2="216.8935" gradientTransform="matrix(-428 0 0 -330 -80903.75 71586.25)">
			<stop  offset="0" style="stop-color:#55C100"/>
			<stop  offset="1" style="stop-color:#54BA00"/>
		</linearGradient>
		<polygon id="triangle36_90_" fill="url(#triangle36_37_)" points="19.166,8.75 16.211,11.344 19.557,10.306 		"/>
		
			<linearGradient id="triangle36_38_" gradientUnits="userSpaceOnUse" x1="-189.0732" y1="215.8975" x2="-189.0654" y2="215.8896" gradientTransform="matrix(-428 0 0 -512 -80903.75 110550)">
			<stop  offset="0" style="stop-color:#42AB00"/>
			<stop  offset="1" style="stop-color:#51B800"/>
		</linearGradient>
		<polygon id="triangle36_89_" fill="url(#triangle36_38_)" points="19.002,14.329 16.211,11.344 19.557,10.306 		"/>
		
			<linearGradient id="SVGID_30_" gradientUnits="userSpaceOnUse" x1="-186.7593" y1="215.0986" x2="-186.7514" y2="215.0908" gradientTransform="matrix(-1180 0 0 -708 -220348 152300)">
			<stop  offset="0" style="stop-color:#127100"/>
			<stop  offset="1" style="stop-color:#3E9E00"/>
		</linearGradient>
		<polygon fill="url(#SVGID_30_)" points="25,13.121 25,15.451 20.808,15.869 19.557,10.306 		"/>
		
			<linearGradient id="SVGID_31_" gradientUnits="userSpaceOnUse" x1="-186.7593" y1="213.9863" x2="-186.7514" y2="213.9785" gradientTransform="matrix(-1180 0 0 -1055 -220348 225761)">
			<stop  offset="0" style="stop-color:#0E6A00"/>
			<stop  offset="1" style="stop-color:#2C9200"/>
		</linearGradient>
		<polygon fill="url(#SVGID_31_)" points="25,7.253 25,13.121 19.557,10.306 		"/>
		
			<linearGradient id="SVGID_32_" gradientUnits="userSpaceOnUse" x1="-192.7769" y1="216.2109" x2="-192.769" y2="216.2031" gradientTransform="matrix(-544 0 0 -547 -104868 118281)">
			<stop  offset="0" style="stop-color:#47AB00"/>
			<stop  offset="1" style="stop-color:#4AB400"/>
		</linearGradient>
		<polygon fill="url(#SVGID_32_)" points="0,12.917 1.781,12.475 1.797,16.773 0,15.401 		"/>
		
			<linearGradient id="SVGID_33_" gradientUnits="userSpaceOnUse" x1="-192.7764" y1="215.6914" x2="-192.7685" y2="215.6835" gradientTransform="matrix(-544 0 0 -703 -104868 151645)">
			<stop  offset="0" style="stop-color:#3C9E00"/>
			<stop  offset="1" style="stop-color:#369500"/>
		</linearGradient>
		<polygon fill="url(#SVGID_33_)" points="0,15.401 1.797,16.773 0,17.897 		"/>
		
			<linearGradient id="SVGID_34_" gradientUnits="userSpaceOnUse" x1="-192.7998" y1="218.4609" x2="-192.7919" y2="218.4531" gradientTransform="matrix(-542 0 0 -293 -104496 64020.25)">
			<stop  offset="0" style="stop-color:#55C100"/>
			<stop  offset="1" style="stop-color:#51BD00"/>
		</linearGradient>
		<polygon fill="url(#SVGID_34_)" points="0,11.928 1.078,11.226 1.781,12.475 0,12.917 		"/>
		
			<linearGradient id="SVGID_35_" gradientUnits="userSpaceOnUse" x1="-194.1543" y1="213.7803" x2="-194.1465" y2="213.7725" gradientTransform="matrix(-452 0 0 -1066 -87755.75 227896)">
			<stop  offset="0" style="stop-color:#61D000"/>
			<stop  offset="1" style="stop-color:#5BC900"/>
		</linearGradient>
		<polygon fill="url(#SVGID_35_)" points="0,9.269 1.078,11.226 0,11.928 		"/>
		
			<linearGradient id="triangle36_39_" gradientUnits="userSpaceOnUse" x1="-192.9116" y1="216.5693" x2="-192.9038" y2="216.5615" gradientTransform="matrix(-222 0 0 -354 -42810 76674.25)">
			<stop  offset="0" style="stop-color:#60CE00"/>
			<stop  offset="1" style="stop-color:#63D200"/>
		</linearGradient>
		<polygon id="triangle36_88_" fill="url(#triangle36_39_)" points="16.211,11.344 14.476,8.562 14.491,10.848 		"/>
		
			<linearGradient id="triangle36_40_" gradientUnits="userSpaceOnUse" x1="-190.1606" y1="220.1855" x2="-190.1528" y2="220.1777" gradientTransform="matrix(-415 0 0 -216 -78900.75 47571)">
			<stop  offset="0" style="stop-color:#5CC500"/>
			<stop  offset="1" style="stop-color:#5EC700"/>
		</linearGradient>
		<polygon id="triangle36_87_" fill="url(#triangle36_40_)" points="16.211,11.344 12.967,12.545 14.491,10.848 		"/>
		
			<linearGradient id="triangle36_41_" gradientUnits="userSpaceOnUse" x1="-193.2446" y1="222.7588" x2="-193.2368" y2="222.751" gradientTransform="matrix(-377 0 0 -175 -72844.75 38995)">
			<stop  offset="0" style="stop-color:#60CE00"/>
			<stop  offset="1" style="stop-color:#5EC700"/>
		</linearGradient>
		<polygon id="triangle36_86_" fill="url(#triangle36_41_)" points="8.004,12.082 7.98,13.457 5.057,12.113 		"/>
		
			<linearGradient id="triangle36_42_" gradientUnits="userSpaceOnUse" x1="-193.2441" y1="216.4307" x2="-193.2363" y2="216.4228" gradientTransform="matrix(-377 0 0 -387 -72844.75 83768.25)">
			<stop  offset="0" style="stop-color:#68D600"/>
			<stop  offset="1" style="stop-color:#67DF00"/>
		</linearGradient>
		<polygon id="triangle36_85_" fill="url(#triangle36_42_)" points="8.004,12.082 6.284,9.072 5.057,12.113 		"/>
		
			<linearGradient id="triangle36_43_" gradientUnits="userSpaceOnUse" x1="-190.8066" y1="219.0508" x2="-190.7988" y2="219.043" gradientTransform="matrix(-619 0 0 -283 -118102 62003.25)">
			<stop  offset="0" style="stop-color:#57C300"/>
			<stop  offset="1" style="stop-color:#55C300"/>
		</linearGradient>
		<polygon id="triangle36_84_" fill="url(#triangle36_43_)" points="7.98,13.457 3.142,14.337 5.057,12.113 		"/>
		
			<linearGradient id="triangle36_44_" gradientUnits="userSpaceOnUse" x1="-193.5103" y1="219.0488" x2="-193.5024" y2="219.041" gradientTransform="matrix(-419 0 0 -283 -81075.75 62003.25)">
			<stop  offset="0" style="stop-color:#51BD00"/>
			<stop  offset="1" style="stop-color:#58C700"/>
		</linearGradient>
		<polygon id="triangle36_83_" fill="url(#triangle36_44_)" points="3.142,14.337 1.781,12.475 5.057,12.113 		"/>
		
			<linearGradient id="triangle36_45_" gradientUnits="userSpaceOnUse" x1="-192.3589" y1="223.0625" x2="-192.351" y2="223.0547" gradientTransform="matrix(-509 0 0 -159 -97906 35478)">
			<stop  offset="0" style="stop-color:#58C700"/>
			<stop  offset="1" style="stop-color:#60CE00"/>
		</linearGradient>
		<polygon id="triangle36_82_" fill="url(#triangle36_45_)" points="1.781,12.475 1.078,11.226 5.057,12.113 		"/>
		
			<linearGradient id="triangle36_46_" gradientUnits="userSpaceOnUse" x1="-196.0869" y1="215.2637" x2="-196.0791" y2="215.2558" gradientTransform="matrix(-283 0 0 -526 -55486.75 113236)">
			<stop  offset="0" style="stop-color:#79F100"/>
			<stop  offset="1" style="stop-color:#71E700"/>
		</linearGradient>
		<polygon id="triangle36_81_" fill="url(#triangle36_46_)" points="6.284,9.072 5.057,12.113 4.071,7.98 		"/>
		
			<linearGradient id="triangle36_47_" gradientUnits="userSpaceOnUse" x1="-192.3613" y1="215.2607" x2="-192.3535" y2="215.2529" gradientTransform="matrix(-509 0 0 -526 -97906 113236)">
			<stop  offset="0" style="stop-color:#65D400"/>
			<stop  offset="1" style="stop-color:#69E100"/>
		</linearGradient>
		<polygon id="triangle36_80_" fill="url(#triangle36_47_)" points="5.057,12.113 1.078,11.226 4.071,7.98 		"/>
		
			<linearGradient id="SVGID_36_" gradientUnits="userSpaceOnUse" x1="-190.5171" y1="214.165" x2="-190.5093" y2="214.1572" gradientTransform="matrix(-811 0 0 -551 -154504 118010)">
			<stop  offset="0" style="stop-color:#A2FF00"/>
			<stop  offset="1" style="stop-color:#7FFB00"/>
		</linearGradient>
		<polygon fill="url(#SVGID_36_)" points="0,4.611 4.041,3.65 4.071,7.98 0,6.163 		"/>
		
			<linearGradient id="SVGID_37_" gradientUnits="userSpaceOnUse" x1="-190.5156" y1="214.0801" x2="-190.5078" y2="214.0722" gradientTransform="matrix(-811 0 0 -773 -154504 165489)">
			<stop  offset="0" style="stop-color:#6CE300"/>
			<stop  offset="1" style="stop-color:#7FF300"/>
		</linearGradient>
		<polygon fill="url(#SVGID_37_)" points="0,6.163 4.071,7.98 1.078,11.226 0,9.269 		"/>
		
			<linearGradient id="SVGID_38_" gradientUnits="userSpaceOnUse" x1="-188.7656" y1="212.4727" x2="-188.7578" y2="212.4648" gradientTransform="matrix(-542 0 0 -586 -102292 124505)">
			<stop  offset="0" style="stop-color:#55BD00"/>
			<stop  offset="1" style="stop-color:#65D400"/>
		</linearGradient>
		<polygon fill="url(#SVGID_38_)" points="16.75,0 14.773,0.711 15.082,0 		"/>
		
			<linearGradient id="SVGID_39_" gradientUnits="userSpaceOnUse" x1="-189.5752" y1="212.4717" x2="-189.5674" y2="212.4639" gradientTransform="matrix(-482 0 0 -586 -91358 124505)">
			<stop  offset="0" style="stop-color:#78EB00"/>
			<stop  offset="1" style="stop-color:#77EF00"/>
		</linearGradient>
		<polygon fill="url(#SVGID_39_)" points="15.082,0 14.773,0.711 13.006,0.365 13.33,0 		"/>
		
			<linearGradient id="SVGID_40_" gradientUnits="userSpaceOnUse" x1="-187.8433" y1="212.4268" x2="-187.8353" y2="212.4188" gradientTransform="matrix(-1472 0 0 -542 -276484 115133)">
			<stop  offset="0" style="stop-color:#AFFF00"/>
			<stop  offset="1" style="stop-color:#BCFF00"/>
		</linearGradient>
		<polygon fill="url(#SVGID_40_)" points="13.33,0 13.006,0.365 12.041,0 		"/>
		
			<linearGradient id="SVGID_41_" gradientUnits="userSpaceOnUse" x1="-189.8979" y1="220.6533" x2="-189.8901" y2="220.6455" gradientTransform="matrix(-938 0 0 -411 -178119 90712)">
			<stop  offset="0" style="stop-color:#005F00"/>
			<stop  offset="1" style="stop-color:#055F00"/>
		</linearGradient>
		<polygon fill="url(#SVGID_41_)" points="0,25 0,24.435 1.07,23.382 5.119,24.992 5.086,25 		"/>
		
			<linearGradient id="SVGID_42_" gradientUnits="userSpaceOnUse" x1="-193.7515" y1="218.8994" x2="-193.7436" y2="218.8916" gradientTransform="matrix(-479 0 0 -514 -92806 112537)">
			<stop  offset="0" style="stop-color:#056200"/>
			<stop  offset="1" style="stop-color:#055F00"/>
		</linearGradient>
		<polygon fill="url(#SVGID_42_)" points="0,23.15 1.07,23.382 0,24.435 		"/>
		
			<linearGradient id="triangle36_48_" gradientUnits="userSpaceOnUse" x1="-189.1416" y1="215.0791" x2="-189.1338" y2="215.0713" gradientTransform="matrix(-299 0 0 -483 -56531.75 103890)">
			<stop  offset="0" style="stop-color:#4EB200"/>
			<stop  offset="1" style="stop-color:#4CB600"/>
		</linearGradient>
		<polygon id="triangle36_79_" fill="url(#triangle36_48_)" points="19.557,10.306 19.166,8.75 21.504,6.511 		"/>
		
			<linearGradient id="triangle36_49_" gradientUnits="userSpaceOnUse" x1="-188.7061" y1="216.5264" x2="-188.6982" y2="216.5185" gradientTransform="matrix(-375 0 0 -285 -70743.75 61716.25)">
			<stop  offset="0" style="stop-color:#55C100"/>
			<stop  offset="1" style="stop-color:#4FBD00"/>
		</linearGradient>
		<polygon id="triangle36_78_" fill="url(#triangle36_49_)" points="19.166,8.75 18.572,6.77 21.504,6.511 		"/>
		
			<linearGradient id="SVGID_43_" gradientUnits="userSpaceOnUse" x1="-188.708" y1="213.0947" x2="-188.7002" y2="213.0869" gradientTransform="matrix(-375 0 0 -965 -70743.75 205636)">
			<stop  offset="0" style="stop-color:#4EB400"/>
			<stop  offset="1" style="stop-color:#54BA00"/>
		</linearGradient>
		<polygon fill="url(#SVGID_43_)" points="19.287,0 21.504,6.511 18.572,6.77 18.963,0 		"/>
		
			<linearGradient id="SVGID_44_" gradientUnits="userSpaceOnUse" x1="-187.0347" y1="213.0889" x2="-187.0268" y2="213.081" gradientTransform="matrix(-930 0 0 -932 -173916 198597)">
			<stop  offset="0" style="stop-color:#1C8000"/>
			<stop  offset="1" style="stop-color:#43A700"/>
		</linearGradient>
		<polygon fill="url(#SVGID_44_)" points="20.57,0 25,2.308 25,3.922 21.504,6.511 19.287,0 		"/>
		
			<linearGradient id="SVGID_45_" gradientUnits="userSpaceOnUse" x1="-187.0586" y1="214.1484" x2="-187.0507" y2="214.1406" gradientTransform="matrix(-611 0 0 -485 -114265 103866)">
			<stop  offset="0" style="stop-color:#177B00"/>
			<stop  offset="1" style="stop-color:#2C9000"/>
		</linearGradient>
		<polygon fill="url(#SVGID_45_)" points="25,3.922 25,6.732 21.504,6.511 		"/>
		
			<linearGradient id="SVGID_46_" gradientUnits="userSpaceOnUse" x1="-187.1099" y1="215.0811" x2="-187.102" y2="215.0732" gradientTransform="matrix(-803 0 0 -483 -150224 103890)">
			<stop  offset="0" style="stop-color:#2C9000"/>
			<stop  offset="1" style="stop-color:#42AB00"/>
		</linearGradient>
		<polygon fill="url(#SVGID_46_)" points="25,7.253 19.557,10.306 21.504,6.511 25,6.732 		"/>
		
			<linearGradient id="triangle36_50_" gradientUnits="userSpaceOnUse" x1="-192.7983" y1="215.4717" x2="-192.7905" y2="215.4638" gradientTransform="matrix(-264 0 0 -511 -50884 110115)">
			<stop  offset="0" style="stop-color:#61D000"/>
			<stop  offset="1" style="stop-color:#63D200"/>
		</linearGradient>
		<polygon id="triangle36_77_" fill="url(#triangle36_50_)" points="14.491,10.848 14.476,8.562 12.428,12.577 		"/>
		
			<linearGradient id="triangle36_51_" gradientUnits="userSpaceOnUse" x1="-192.7974" y1="220.0547" x2="-192.7895" y2="220.0469" gradientTransform="matrix(-264 0 0 -220 -50884 48423)">
			<stop  offset="0" style="stop-color:#60CE00"/>
			<stop  offset="1" style="stop-color:#5BC900"/>
		</linearGradient>
		<polygon id="triangle36_76_" fill="url(#triangle36_51_)" points="14.491,10.848 12.967,12.545 12.428,12.577 		"/>
		
			<linearGradient id="triangle36_52_" gradientUnits="userSpaceOnUse" x1="-188.8486" y1="215.4717" x2="-188.8408" y2="215.4638" gradientTransform="matrix(-828 0 0 -511 -156352 110115)">
			<stop  offset="0" style="stop-color:#66D600"/>
			<stop  offset="1" style="stop-color:#61D000"/>
		</linearGradient>
		<polygon id="triangle36_75_" fill="url(#triangle36_52_)" points="14.476,8.562 8.004,12.082 12.428,12.577 		"/>
		
			<linearGradient id="triangle36_53_" gradientUnits="userSpaceOnUse" x1="-193.5396" y1="218.8887" x2="-193.5317" y2="218.8808" gradientTransform="matrix(-238 0 0 -300 -46048 65679.25)">
			<stop  offset="0" style="stop-color:#51BA00"/>
			<stop  offset="1" style="stop-color:#58C500"/>
		</linearGradient>
		<polygon id="triangle36_74_" fill="url(#triangle36_53_)" points="14.288,14.903 12.967,12.545 12.428,12.577 		"/>
		
			<linearGradient id="triangle36_54_" gradientUnits="userSpaceOnUse" x1="-189.7212" y1="218.9805" x2="-189.7133" y2="218.9726" gradientTransform="matrix(-572 0 0 -296 -108506 64831.25)">
			<stop  offset="0" style="stop-color:#51BA00"/>
			<stop  offset="1" style="stop-color:#59C100"/>
		</linearGradient>
		<polygon id="triangle36_73_" fill="url(#triangle36_54_)" points="14.288,14.903 9.816,14.172 12.428,12.577 		"/>
		
			<linearGradient id="triangle36_55_" gradientUnits="userSpaceOnUse" x1="-190.1655" y1="219.4229" x2="-190.1577" y2="219.415" gradientTransform="matrix(-566 0 0 -266 -107622 58378.25)">
			<stop  offset="0" style="stop-color:#55C300"/>
			<stop  offset="1" style="stop-color:#5BC900"/>
		</linearGradient>
		<polygon id="triangle36_72_" fill="url(#triangle36_55_)" points="9.816,14.172 8.004,12.082 12.428,12.577 		"/>
		
			<linearGradient id="triangle36_56_" gradientUnits="userSpaceOnUse" x1="-188.8662" y1="215.1377" x2="-188.8584" y2="215.1299" gradientTransform="matrix(-820 0 0 -404 -154856 86921)">
			<stop  offset="0" style="stop-color:#74EB00"/>
			<stop  offset="1" style="stop-color:#8DFF00"/>
		</linearGradient>
		<polygon id="triangle36_71_" fill="url(#triangle36_56_)" points="14.476,8.562 14.21,6.086 8.066,5.387 		"/>
		
			<linearGradient id="triangle36_57_" gradientUnits="userSpaceOnUse" x1="-188.8467" y1="214.0156" x2="-188.8389" y2="214.0078" gradientTransform="matrix(-828 0 0 -852 -156352 182346)">
			<stop  offset="0" style="stop-color:#71E700"/>
			<stop  offset="1" style="stop-color:#84F700"/>
		</linearGradient>
		<polygon id="triangle36_70_" fill="url(#triangle36_57_)" points="14.476,8.562 8.004,12.082 8.066,5.387 		"/>
		
			<linearGradient id="triangle36_58_" gradientUnits="userSpaceOnUse" x1="-188.9907" y1="213.7549" x2="-188.9829" y2="213.747" gradientTransform="matrix(-786 0 0 -544 -148532 116285)">
			<stop  offset="0" style="stop-color:#87FF00"/>
			<stop  offset="1" style="stop-color:#A3FF00"/>
		</linearGradient>
		<polygon id="triangle36_69_" fill="url(#triangle36_58_)" points="14.21,6.086 10.708,1.812 8.066,5.387 		"/>
		
			<linearGradient id="triangle36_59_" gradientUnits="userSpaceOnUse" x1="-190.8872" y1="213.8604" x2="-190.8794" y2="213.8525" gradientTransform="matrix(-517 0 0 -466 -98679 99660)">
			<stop  offset="0" style="stop-color:#AFFF00"/>
			<stop  offset="1" style="stop-color:#BAFF00"/>
		</linearGradient>
		<polygon id="triangle36_68_" fill="url(#triangle36_59_)" points="10.708,1.812 6.667,1.725 8.066,5.387 		"/>
		
			<linearGradient id="triangle36_60_" gradientUnits="userSpaceOnUse" x1="-197.29" y1="214.0146" x2="-197.2822" y2="214.0068" gradientTransform="matrix(-228 0 0 -852 -44974 182346)">
			<stop  offset="0" style="stop-color:#6CE300"/>
			<stop  offset="1" style="stop-color:#83FF00"/>
		</linearGradient>
		<polygon id="triangle36_67_" fill="url(#triangle36_60_)" points="8.004,12.082 6.284,9.072 8.066,5.387 		"/>
		
			<linearGradient id="triangle36_61_" gradientUnits="userSpaceOnUse" x1="-191.5557" y1="213.8584" x2="-191.5478" y2="213.8506" gradientTransform="matrix(-515 0 0 -466 -98643 99660)">
			<stop  offset="0" style="stop-color:#C4FF00"/>
			<stop  offset="1" style="stop-color:#AFFF00"/>
		</linearGradient>
		<polygon id="triangle36_66_" fill="url(#triangle36_61_)" points="6.667,1.725 4.041,3.65 8.066,5.387 		"/>
		
			<linearGradient id="triangle36_62_" gradientUnits="userSpaceOnUse" x1="-191.5933" y1="214.8379" x2="-191.5854" y2="214.8301" gradientTransform="matrix(-511 0 0 -469 -97895 100765)">
			<stop  offset="0" style="stop-color:#87FF00"/>
			<stop  offset="1" style="stop-color:#91FF00"/>
		</linearGradient>
		<polygon id="triangle36_65_" fill="url(#triangle36_62_)" points="6.284,9.072 4.071,7.98 8.066,5.387 		"/>
		
			<linearGradient id="triangle36_63_" gradientUnits="userSpaceOnUse" x1="-191.5542" y1="214.1689" x2="-191.5464" y2="214.1611" gradientTransform="matrix(-515 0 0 -551 -98643 118010)">
			<stop  offset="0" style="stop-color:#94FF00"/>
			<stop  offset="1" style="stop-color:#A8FF00"/>
		</linearGradient>
		<polygon id="triangle36_64_" fill="url(#triangle36_63_)" points="4.071,7.98 4.041,3.65 8.066,5.387 		"/>
		
			<linearGradient id="SVGID_47_" gradientUnits="userSpaceOnUse" x1="-190.7358" y1="218.1934" x2="-190.7281" y2="218.1856" gradientTransform="matrix(-385 0 0 -621 -73418.75 135521)">
			<stop  offset="0" style="stop-color:#025700"/>
			<stop  offset="1" style="stop-color:#0B6200"/>
		</linearGradient>
		<polygon fill="url(#SVGID_47_)" points="12.956,25 13.28,24.089 13.641,25 		"/>
		
			<linearGradient id="SVGID_48_" gradientUnits="userSpaceOnUse" x1="-192.7656" y1="221.3555" x2="-192.7578" y2="221.3476" gradientTransform="matrix(-292 0 0 -386 -56274.75 85466.25)">
			<stop  offset="0" style="stop-color:#106C00"/>
			<stop  offset="1" style="stop-color:#085F00"/>
		</linearGradient>
		<polygon fill="url(#SVGID_48_)" points="11.023,25 10.998,24.953 13.28,24.089 12.956,25 		"/>
	</g>
</g>
</svg>
